<?xml version="1.0" standalone="no"?>
<!DOCTYPE svg PUBLIC "-//W3C//DTD SVG 20010904//EN"
 "http://www.w3.org/TR/2001/REC-SVG-20010904/DTD/svg10.dtd">
<svg version="1.0" xmlns="http://www.w3.org/2000/svg"
 width="16.000000pt" height="16.000000pt" viewBox="0 0 16.000000 16.000000"
 preserveAspectRatio="xMidYMid meet">
<metadata>
Created by potrace 1.11, written by Peter Selinger 2001-2013
</metadata>
<g transform="translate(0.000000,16.000000) scale(0.006154,-0.006154)"
fill="#000000" stroke="none">
<path d="M1253 2092 c-21 -27 -48 -62 -60 -78 -12 -16 -121 -155 -242 -309
-219 -279 -219 -280 -198 -297 12 -9 33 -23 47 -30 14 -7 128 -72 255 -144
126 -72 250 -142 275 -156 25 -14 188 -107 364 -207 175 -100 320 -180 323
-178 6 6 -709 1447 -718 1447 -4 0 -25 -22 -46 -48z"/>
<path d="M10 1713 c0 -4 110 -271 244 -593 l244 -585 801 0 c441 0 801 1 801
2 0 1 -34 20 -145 83 -126 71 -670 379 -750 425 -55 32 -118 67 -140 79 -55
30 -639 361 -805 456 -209 119 -250 141 -250 133z"/>
<path d="M2175 1571 c-286 -106 -399 -152 -397 -162 4 -16 44 -99 235 -489
131 -267 136 -274 147 -245 6 16 18 46 27 65 8 19 19 44 23 55 4 11 15 36 23
55 14 31 30 71 112 270 61 150 148 359 161 388 20 44 84 202 84 208 0 8 -16 2
-415 -145z"/>
</g>
</svg>
